<svg width="400" height="81" viewBox="0 0 400 81" fill="none" xmlns="http://www.w3.org/2000/svg">
<g clip-path="url(#clip0_631_1374)">
<path d="M107.436 36.7695C111.13 37.6112 113.72 38.6443 115.205 39.9069C116.232 40.7026 117.057 41.7308 117.613 42.9077C118.169 44.0847 118.44 45.377 118.404 46.6793C118.404 49.6254 117.224 52.0359 114.862 53.949C112.501 55.8621 107.817 57.4308 102.295 57.4308H82.5669V56.3595C84.3568 56.3595 85.5755 56.2064 86.223 55.8621C86.8045 55.5975 87.2759 55.1375 87.5559 54.5612C87.8225 54.0255 87.9749 52.6864 87.9749 50.582V25.291C87.9749 23.1483 87.8225 21.8474 87.5559 21.2735C87.2759 20.6972 86.8045 20.2371 86.223 19.9726C85.5755 19.6665 84.3568 19.4752 82.5669 19.4752V18.4421H101.19C105.646 18.4421 108.769 18.8247 110.635 19.6282C112.408 20.3615 113.93 21.598 115.015 23.1866C116.052 24.665 116.61 26.4285 116.614 28.2371C116.612 30.1072 115.888 31.9037 114.596 33.2494C113.225 34.7416 110.864 35.8895 107.436 36.7695ZM97.0009 38.2234V52.1889C97.0009 53.222 97.2674 53.9872 97.8006 54.5229C98.3338 55.0586 99.0955 55.3264 100.124 55.3264C101.596 55.3382 103.049 54.9833 104.351 54.2933C105.623 53.6292 106.661 52.587 107.322 51.3089C108.022 49.9781 108.376 48.4907 108.35 46.9854C108.372 45.2696 107.938 43.5789 107.093 42.0879C106.331 40.6999 105.103 39.6288 103.628 39.0652C102.104 38.4913 99.9333 38.1852 97.0009 38.2234ZM97.0009 35.966C99.7048 35.966 101.723 35.6599 103.018 35.0477C104.228 34.5049 105.248 33.6125 105.951 32.4842C106.707 31.1879 107.078 29.7004 107.017 28.1989C107.078 26.7143 106.721 25.2426 105.989 23.9518C105.299 22.8452 104.289 21.9773 103.094 21.4648C101.799 20.8526 99.781 20.5848 97.0009 20.6231V35.966Z" fill="#38B6FF"/>
<path d="M141.94 56.3595V57.4308H121.641V56.3595H122.936C123.871 56.3982 124.801 56.2009 125.64 55.7855C126.181 55.4702 126.587 54.9664 126.783 54.3699C127.011 53.9107 127.087 52.7246 127.087 50.7733V25.0997C127.087 23.1101 127.011 21.8474 126.783 21.35C126.513 20.7929 126.072 20.3371 125.526 20.0491C124.728 19.6319 123.835 19.4339 122.936 19.4752H121.641V18.4421H141.94V19.4752H140.646C139.707 19.4467 138.777 19.6573 137.942 20.0874C137.4 20.3942 136.983 20.8814 136.761 21.4648C136.532 21.9239 136.456 23.1483 136.456 25.0997V50.7733C136.456 52.7629 136.532 53.9872 136.761 54.5229C137.048 55.0812 137.5 55.5359 138.056 55.8238C138.864 56.209 139.752 56.3927 140.646 56.3595H141.94Z" fill="#38B6FF"/>
<path d="M183.757 17.5239V31.2981H182.691C181.396 27.5102 179.492 24.6788 176.94 22.7274C174.563 20.8152 171.607 19.7758 168.561 19.7813C165.629 19.7813 163.23 20.5848 161.287 22.23C159.345 23.8753 158.012 26.171 157.212 29.1171C156.402 32.0581 155.992 35.0955 155.994 38.1469C155.945 41.4732 156.394 44.788 157.326 47.9802C158.215 50.8115 159.624 52.8777 161.554 54.1786C163.634 55.5415 166.079 56.2355 168.561 56.1682C169.521 56.157 170.477 56.0545 171.418 55.8621C172.443 55.6523 173.449 55.3579 174.426 54.9821V46.8706C174.426 45.3401 174.35 44.3453 174.122 43.8862C173.817 43.3606 173.367 42.9352 172.827 42.6618C172.083 42.288 171.259 42.1041 170.427 42.1261H169.437V41.0548H188.289V42.1261C186.88 42.2409 185.89 42.4322 185.318 42.7383C184.723 43.0452 184.261 43.5632 184.024 44.1922C183.833 44.5749 183.757 45.4549 183.757 46.8706V54.9821C181.263 56.0976 178.659 56.9441 175.988 57.5073C173.245 58.0827 170.449 58.3648 167.647 58.3491C163.953 58.3491 160.906 57.8517 158.469 56.8569C156.123 55.8892 153.95 54.5453 152.033 52.8777C150.238 51.322 148.752 49.4397 147.653 47.3297C146.298 44.5718 145.619 41.5282 145.673 38.453C145.673 32.599 147.729 27.6249 151.804 23.5692C155.879 19.5135 161.097 17.4856 167.305 17.4856C169.056 17.4808 170.803 17.6474 172.522 17.983C173.915 18.2996 175.278 18.7348 176.597 19.2839C178.501 20.0109 179.606 20.3552 179.949 20.3552C180.496 20.3489 181.023 20.1452 181.434 19.7813C181.891 19.3604 182.31 18.6334 182.691 17.5239H183.757Z" fill="#38B6FF"/>
<path d="M204.323 57.4308V56.3595H205.617C206.76 56.3595 207.636 56.2064 208.207 55.8238C208.807 55.5104 209.278 54.996 209.54 54.3699C209.731 53.9872 209.807 52.7629 209.807 50.7733V25.0997C209.807 23.1101 209.692 21.8474 209.502 21.35C209.215 20.7918 208.763 20.3371 208.207 20.0491C207.413 19.6229 206.517 19.4244 205.617 19.4752H204.323V18.4421H221.727C226.373 18.4421 230.106 19.0543 232.924 20.317C236.229 21.7475 238.983 24.2182 240.769 27.3571C242.275 30.1338 243.176 33.2004 243.412 36.3535C243.649 39.5067 243.215 42.6742 242.14 45.6462C241.38 47.745 240.23 49.6796 238.751 51.3472C237.373 52.8457 235.734 54.0777 233.914 54.9821C231.786 55.9878 229.531 56.6959 227.211 57.0864C225.397 57.3637 223.562 57.4789 221.727 57.4308H204.323ZM219.137 20.6231V51.0794C219.137 52.6863 219.214 53.6812 219.366 54.0255C219.515 54.3987 219.802 54.7001 220.166 54.8673C220.849 55.2132 221.611 55.3715 222.375 55.3264C225.574 55.3264 228.011 54.2168 229.687 52.0359C231.972 49.077 233.114 44.4856 233.114 38.2617C233.114 33.2877 232.353 29.2702 230.791 26.2858C229.534 23.9518 227.935 22.3448 225.993 21.5031C224.622 20.8909 222.336 20.6231 219.137 20.6231Z" fill="#38B6FF"/>
<path d="M261.487 39.6391V50.582C261.487 52.6864 261.64 54.0255 261.906 54.5612C262.173 55.1558 262.647 55.6319 263.239 55.9003C263.874 56.2064 265.093 56.3595 266.895 56.3595V57.4308H247.015V56.3595C248.805 56.3595 250.024 56.2064 250.671 55.8621C251.244 55.5851 251.712 55.1285 252.004 54.5612C252.271 54.0255 252.385 52.6864 252.385 50.582V25.291C252.385 23.1483 252.271 21.8474 252.004 21.2735C251.696 20.7051 251.216 20.2496 250.633 19.9726C249.986 19.6665 248.767 19.4752 247.015 19.4752V18.4421H265.067C269.751 18.4421 273.179 18.7482 275.35 19.3987C277.455 20.014 279.318 21.2707 280.682 22.9953C282.056 24.7626 282.782 26.9515 282.738 29.1937C282.772 30.5342 282.514 31.8661 281.981 33.0956C281.448 34.3251 280.654 35.4224 279.653 36.3103C278.359 37.4965 276.492 38.4147 274.131 38.9887L283.462 52.1889C284.681 53.9235 285.556 54.9948 286.09 55.4029C286.871 55.9956 287.815 56.3298 288.794 56.3595V57.4308H276.569L264.039 39.6391H261.487ZM261.487 20.5083V37.6112H263.125C265.791 37.6112 267.771 37.3817 269.104 36.8843C270.402 36.3836 271.49 35.452 272.189 34.2442C272.951 32.9433 273.331 31.2981 273.331 29.2319C273.331 26.2858 272.646 24.0666 271.237 22.6509C269.828 21.2352 267.657 20.5083 264.572 20.5083H261.487Z" fill="#38B6FF"/>
<path d="M310.921 17.8682C317.128 17.6386 322.156 19.4752 326.002 23.3014C329.849 27.1275 331.791 31.9868 331.791 37.8025C331.791 42.7383 330.382 47.1001 327.487 50.8498C323.679 55.8238 318.271 58.3491 311.301 58.3491C304.332 58.3491 298.924 55.9386 295.078 51.1941C292.069 47.4445 290.584 42.9679 290.584 37.8025C290.584 32.025 292.526 27.2041 296.449 23.3396C300.371 19.4752 305.208 17.6386 310.921 17.8682ZM311.263 19.7048C307.722 19.7048 305.018 21.5413 303.151 25.1762C301.666 28.1606 300.904 32.4842 300.904 38.0704C300.904 44.7279 302.085 49.6637 304.408 52.8394C306.008 55.0586 308.293 56.1682 311.225 56.1682C312.971 56.2323 314.692 55.7365 316.138 54.7525C317.814 53.4898 319.147 51.5385 320.061 48.8602C320.975 46.1819 321.47 42.6235 321.47 38.3C321.47 33.1346 320.975 29.2702 320.023 26.7067C319.071 24.1431 317.852 22.3448 316.367 21.3118C314.886 20.2304 313.094 19.666 311.263 19.7048Z" fill="#38B6FF"/>
<path d="M349.729 39.7922V50.582C349.729 52.6864 349.881 54.0255 350.109 54.5612C350.405 55.1489 350.887 55.6204 351.48 55.9003C352.166 56.2064 353.347 56.3595 355.099 56.3595V57.4308H335.371V56.3595C337.199 56.3595 338.379 56.2064 339.027 55.8621C339.609 55.585 340.089 55.1296 340.398 54.5612C340.626 54.0255 340.779 52.6864 340.779 50.582V25.291C340.779 23.1483 340.626 21.8474 340.398 21.2735C340.089 20.7051 339.609 20.2496 339.027 19.9726C338.379 19.6665 337.161 19.4752 335.371 19.4752V18.4421H352.318C357.879 18.4421 361.878 19.4369 364.315 21.4265C366.752 23.4162 367.933 25.9032 367.933 28.8876C367.992 31.2708 367.164 33.5905 365.61 35.3921C364.048 37.1904 361.878 38.4147 359.135 39.0652C357.269 39.5243 354.146 39.7922 349.729 39.7922ZM349.729 20.6613V37.5347H351.176C353.512 37.5347 355.302 36.846 356.546 35.4686C357.802 34.0529 358.45 31.9102 358.45 29.0024C358.45 26.0945 357.802 23.9901 356.546 22.6509C355.289 21.3118 353.423 20.6231 350.909 20.6231L349.729 20.6613Z" fill="#38B6FF"/>
<path d="M397.258 17.5239L397.601 30.5328H396.42C395.849 27.2806 394.516 24.6405 392.345 22.6509C390.174 20.6613 387.813 19.7048 385.299 19.7048C383.357 19.7048 381.796 20.2022 380.691 21.2735C380.161 21.7104 379.733 22.259 379.436 22.8804C379.14 23.5019 378.984 24.1811 378.977 24.8701C378.952 25.6788 379.164 26.477 379.587 27.1658C380.284 28.2322 381.191 29.1437 382.253 29.8441C383.129 30.4946 385.223 31.6042 388.46 33.2111C392.992 35.4686 396.077 37.573 397.639 39.5626C399.188 41.5037 400.022 43.9232 400 46.4114C400 49.6637 398.743 52.495 396.192 54.829C393.64 57.163 390.441 58.3491 386.556 58.3491C385.39 58.3605 384.226 58.232 383.091 57.9665C381.694 57.6294 380.331 57.1684 379.015 56.589C378.297 56.253 377.522 56.0582 376.73 56.0151C376.163 56.0395 375.618 56.24 375.169 56.589C374.56 57.0294 374.096 57.6422 373.836 58.3491H372.77V43.6183H373.836C374.674 47.7506 376.273 50.8881 378.673 53.069C381.072 55.2499 383.662 56.3595 386.404 56.3595C389.146 56.3595 390.25 55.7473 391.545 54.5994C392.84 53.4516 393.449 52.0742 393.449 50.5054C393.433 49.5611 393.171 48.6375 392.688 47.8271C392.136 46.8604 391.382 46.0251 390.479 45.3784C389.489 44.5749 387.737 43.5801 385.223 42.3174C381.681 40.5957 379.13 39.1034 377.606 37.8791C376.144 36.7626 374.925 35.3561 374.026 33.7468C373.185 32.2264 372.752 30.5123 372.77 28.7728C372.748 27.2781 373.042 25.7958 373.633 24.4238C374.224 23.0519 375.098 21.8216 376.197 20.8144C378.482 18.6334 381.339 17.5239 384.804 17.5239C386.037 17.521 387.266 17.6753 388.46 17.983C389.593 18.304 390.691 18.7399 391.736 19.2839C393.031 19.8961 393.906 20.2022 394.44 20.2022C394.657 20.2127 394.875 20.1773 395.078 20.0982C395.282 20.0191 395.466 19.8981 395.62 19.743C395.887 19.4369 396.153 18.71 396.42 17.5239H397.258Z" fill="#38B6FF"/>
<path d="M114.101 75.0312L109.34 64.5857V72.8885C109.34 73.6538 109.416 74.1129 109.569 74.3042C109.706 74.445 109.873 74.5525 110.058 74.6188C110.243 74.6851 110.44 74.7084 110.635 74.6868H111.092V75.0312H106.789V74.6868H107.207C107.415 74.712 107.626 74.683 107.82 74.6026C108.013 74.5222 108.183 74.3931 108.312 74.2277C108.464 74.0364 108.54 73.5772 108.54 72.8885V64.777C108.56 64.3727 108.495 63.9687 108.35 63.5909C108.261 63.385 108.098 63.2207 107.893 63.1318C107.539 63.0043 107.163 62.9521 106.789 62.9787V62.6344H110.292L114.748 72.3529L119.166 62.6344H122.67V62.9787H122.251C122.038 62.9574 121.823 62.988 121.624 63.0679C121.425 63.1479 121.248 63.2748 121.108 63.4379C120.949 63.8651 120.884 64.3221 120.918 64.777V72.8885C120.918 73.6538 120.994 74.1129 121.184 74.3042C121.322 74.445 121.489 74.5525 121.674 74.6188C121.858 74.6851 122.056 74.7084 122.251 74.6868H122.67V75.0312H117.414V74.6868H117.871C118.079 74.7084 118.288 74.6778 118.481 74.5976C118.674 74.5174 118.844 74.3903 118.976 74.2277C119.135 73.8005 119.2 73.3435 119.166 72.8885V64.5857L114.405 75.0312H114.101Z" fill="#FF1616"/>
<path d="M138.513 70.8989H133.752L132.914 72.8503C132.736 73.1806 132.632 73.5464 132.61 73.9216C132.611 74.0199 132.636 74.1165 132.682 74.203C132.729 74.2896 132.795 74.3637 132.876 74.419C133.225 74.6138 133.621 74.7066 134.019 74.6868V75.0312H130.134V74.6868C130.491 74.6738 130.836 74.5539 131.124 74.3425C131.572 73.8098 131.92 73.2007 132.153 72.5442L136.494 62.3283H136.837L141.141 72.659C141.483 73.5007 141.788 74.0364 142.093 74.266C142.421 74.5476 142.842 74.6975 143.273 74.6868V75.0312H138.399V74.6868C138.743 74.6981 139.084 74.619 139.389 74.4573C139.468 74.3921 139.534 74.3107 139.579 74.2183C139.625 74.1259 139.651 74.0248 139.655 73.9216C139.594 73.4835 139.466 73.0576 139.274 72.659L138.513 70.8989ZM138.284 70.2102L136.19 65.1979L134.019 70.2102H138.284Z" fill="#FF1616"/>
<path d="M163.001 75.0312H159.688L155.537 69.2154H154.242V72.8503C154.242 73.6155 154.318 74.1129 154.47 74.3042C154.607 74.445 154.775 74.5525 154.959 74.6188C155.144 74.6851 155.342 74.7084 155.537 74.6868H155.994V75.0312H150.7V74.6868H151.157C151.374 74.7108 151.593 74.6775 151.794 74.5903C151.994 74.5031 152.168 74.3649 152.299 74.1894C152.459 73.7623 152.524 73.3052 152.49 72.8503V64.8153C152.49 64.0501 152.414 63.5527 152.223 63.3614C152.086 63.2206 151.919 63.113 151.734 63.0467C151.549 62.9805 151.352 62.9572 151.157 62.9787H150.7V62.6344H155.194C156.179 62.5936 157.165 62.6836 158.126 62.9022C158.737 63.1033 159.279 63.4749 159.688 63.9736C160.129 64.4804 160.36 65.1374 160.335 65.8101C160.352 66.5411 160.093 67.2515 159.612 67.7997C159.116 68.3736 158.355 68.7563 157.288 68.9858L159.84 72.5442C160.25 73.1767 160.765 73.7334 161.363 74.1894C161.864 74.4791 162.424 74.6493 163.001 74.6868V75.0312ZM154.242 68.6415H154.737C155.917 68.6415 156.793 68.3736 157.403 67.8762C157.815 67.528 158.108 67.0594 158.243 66.5357C158.378 66.0119 158.346 65.4591 158.154 64.954C157.961 64.4489 157.616 64.0167 157.168 63.7175C156.719 63.4184 156.189 63.2671 155.651 63.2848C155.177 63.2906 154.705 63.3419 154.242 63.4379V68.6415Z" fill="#FF1616"/>
<path d="M175.34 68.1441L179.872 72.6972C180.438 73.3048 181.093 73.8211 181.815 74.2277C182.299 74.4846 182.83 74.6408 183.376 74.6868V75.0312H177.511V74.6868C177.775 74.7129 178.04 74.6596 178.273 74.5338C178.341 74.4863 178.397 74.4235 178.437 74.3505C178.476 74.2774 178.498 74.1961 178.501 74.1129C178.498 73.9819 178.472 73.8525 178.425 73.7303C178.253 73.4978 178.062 73.2802 177.854 73.0798L173.588 68.8328V72.8503C173.566 73.2618 173.604 73.6745 173.703 74.0746C173.786 74.2492 173.919 74.3955 174.084 74.4955C174.346 74.6178 174.632 74.683 174.921 74.6868H175.34V75.0312H170.085V74.6868H170.504C170.707 74.7011 170.911 74.6709 171.102 74.5983C171.293 74.5256 171.465 74.4122 171.608 74.2659C171.804 73.8216 171.883 73.334 171.837 72.8503V64.8153C171.856 64.3912 171.818 63.9663 171.722 63.5527C171.626 63.3974 171.496 63.2664 171.342 63.1701C171.085 63.0307 170.795 62.9646 170.504 62.9787H170.085V62.6344H175.34V62.9787H174.921C174.63 62.9646 174.34 63.0307 174.084 63.1701C173.993 63.217 173.912 63.2818 173.847 63.3607C173.781 63.4396 173.732 63.5309 173.703 63.6292C173.603 64.0161 173.565 64.4164 173.588 64.8153V68.6032L174.845 67.4554C176.635 65.8101 177.74 64.7005 178.121 64.1266C178.257 63.9363 178.336 63.7105 178.349 63.4762C178.331 63.3412 178.263 63.2181 178.159 63.1318C177.968 63.0042 177.738 62.9499 177.511 62.9787H177.245V62.6344H181.777V62.9787L181.053 63.0553C180.772 63.1657 180.504 63.3068 180.253 63.4762C179.827 63.7366 179.43 64.0446 179.073 64.3944C178.92 64.5092 178.311 65.1214 177.207 66.2693L175.34 68.1441Z" fill="#FF1616"/>
<path d="M194.04 63.2848V68.2206H196.782C197.467 68.2206 197.962 68.1058 198.191 67.8762C198.55 67.4794 198.741 66.9581 198.724 66.4223H199.067V70.7076H198.724C198.68 70.3158 198.591 69.9306 198.458 69.5598C198.341 69.3382 198.153 69.1629 197.924 69.0624C197.56 68.9239 197.172 68.8589 196.782 68.871H194.04V72.9651C194.026 73.2985 194.052 73.6324 194.116 73.9599C194.184 74.0786 194.274 74.1827 194.383 74.2659C194.602 74.3451 194.837 74.3714 195.068 74.3425H197.163C197.673 74.3604 198.184 74.3219 198.686 74.2277C199.031 74.111 199.344 73.9144 199.6 73.6538C200.069 73.1359 200.466 72.5567 200.781 71.932H201.124L200.057 75.0312H190.536V74.6868H190.993C191.27 74.6823 191.543 74.617 191.793 74.4955C191.98 74.3937 192.127 74.2321 192.212 74.0364C192.311 73.6494 192.35 73.2492 192.326 72.8503V64.777C192.326 64.0118 192.212 63.5144 192.059 63.3231C191.916 63.1935 191.747 63.0959 191.563 63.0365C191.379 62.9772 191.185 62.9575 190.993 62.9787H190.536V62.6344H200.057L200.209 65.351H199.829C199.771 64.8828 199.629 64.4291 199.41 64.0118C199.256 63.7449 199.013 63.5416 198.724 63.4379C198.303 63.3217 197.866 63.2701 197.429 63.2848H194.04Z" fill="#FF1616"/>
<path d="M219.29 62.6344L219.404 65.5423H219.061C219.027 65.1612 218.938 64.7873 218.795 64.4327C218.634 64.0986 218.365 63.8289 218.033 63.6675C217.659 63.4682 217.237 63.3756 216.814 63.3996H215.062V72.8885C215.062 73.6538 215.138 74.1129 215.329 74.3042C215.466 74.445 215.634 74.5525 215.818 74.6188C216.003 74.6851 216.2 74.7084 216.395 74.6868H216.814V75.0312H211.559V74.6868H212.016C212.223 74.7051 212.431 74.6729 212.624 74.5929C212.816 74.513 212.986 74.3877 213.12 74.2277C213.28 73.8005 213.345 73.3435 213.31 72.8885V63.3996H211.825C211.416 63.3814 211.006 63.42 210.606 63.5144C210.273 63.6516 209.993 63.8932 209.807 64.2031C209.544 64.6008 209.399 65.0651 209.388 65.5423H209.045L209.197 62.6344H219.29Z" fill="#FF1616"/>
<path d="M232.543 74.6868V75.0312H227.249V74.6868H227.706C227.91 74.7011 228.114 74.6709 228.305 74.5983C228.495 74.5256 228.668 74.4122 228.811 74.2659C229.007 73.8216 229.085 73.334 229.039 72.8503V64.8153C229.062 64.4037 229.024 63.9911 228.925 63.5909C228.842 63.4164 228.709 63.2701 228.544 63.1701C228.288 63.0307 227.998 62.9646 227.706 62.9787H227.249V62.6344H232.543V62.9787H232.124C231.92 62.9559 231.713 62.9821 231.521 63.0553C231.329 63.1285 231.157 63.2465 231.02 63.3996C230.867 63.5909 230.791 64.0883 230.791 64.8153V72.8503C230.768 73.2618 230.807 73.6745 230.905 74.0746C230.989 74.2492 231.121 74.3955 231.286 74.4955C231.549 74.6178 231.835 74.683 232.124 74.6868H232.543Z" fill="#FF1616"/>
<path d="M239.703 62.6344H243.054L250.595 71.932V64.777C250.595 64.0118 250.519 63.5527 250.328 63.3614C250.193 63.2182 250.026 63.109 249.841 63.0426C249.655 62.9761 249.457 62.9543 249.262 62.9787H248.843V62.6344H253.147V62.9787H252.728C252.52 62.9535 252.309 62.9825 252.116 63.0629C251.922 63.1434 251.753 63.2725 251.623 63.4379C251.471 63.6292 251.395 64.0883 251.395 64.777V75.2225H251.09L242.94 65.2362V72.8885C242.94 73.6538 243.016 74.1129 243.169 74.3042C243.309 74.4406 243.477 74.5453 243.661 74.6113C243.845 74.6773 244.04 74.703 244.235 74.6868H244.692V75.0312H240.388V74.6868H240.807C241.015 74.712 241.226 74.683 241.419 74.6026C241.613 74.5222 241.782 74.3931 241.912 74.2277C242.064 74.0364 242.14 73.5772 242.14 72.8885V64.2414C241.894 63.9405 241.613 63.6707 241.302 63.4379C241.059 63.2658 240.789 63.1364 240.503 63.0553C240.242 62.9841 239.972 62.9582 239.703 62.9787V62.6344Z" fill="#FF1616"/>
<path d="M271.808 62.3283L272.113 66.2693H271.808C271.56 65.4441 271.131 64.6856 270.551 64.0501C270.173 63.6854 269.724 63.4022 269.233 63.218C268.742 63.0337 268.219 62.9523 267.695 62.9788C266.987 62.9481 266.283 63.1052 265.655 63.4343C265.027 63.7634 264.495 64.2529 264.115 64.8536C263.412 65.9883 263.054 67.3051 263.087 68.6415C263.071 69.7511 263.305 70.8499 263.772 71.8555C264.135 72.738 264.76 73.4864 265.562 73.9981C266.242 74.4433 267.036 74.6824 267.847 74.6868C268.296 74.6928 268.744 74.6414 269.18 74.5338C269.606 74.4042 270.015 74.2244 270.399 73.9981V70.4398C270.44 70.0253 270.388 69.607 270.247 69.2154C270.162 69.0197 270.014 68.8581 269.828 68.7563C269.487 68.6284 269.124 68.5762 268.761 68.6032V68.2589H273.56V68.6032H273.331C273.136 68.5776 272.937 68.6113 272.761 68.6999C272.584 68.7885 272.438 68.9281 272.341 69.1006C272.185 69.5287 272.12 69.9849 272.151 70.4398V74.2277C271.501 74.5895 270.811 74.8721 270.094 75.0694C269.357 75.2406 268.604 75.3304 267.847 75.3373C265.448 75.3373 263.62 74.5338 262.401 73.0033C261.471 71.8903 260.97 70.4776 260.992 69.0241C260.991 67.9273 261.266 66.848 261.792 65.8866C262.359 64.7397 263.246 63.7827 264.343 63.1318C265.317 62.5755 266.423 62.2976 267.543 62.3283C267.952 62.3248 268.36 62.3633 268.761 62.4431C269.295 62.5646 269.817 62.731 270.323 62.9405L271.008 63.1318C271.126 63.1221 271.235 63.0673 271.313 62.9788C271.404 62.7734 271.455 62.5528 271.465 62.3283H271.808Z" fill="#FF1616"/>
<path d="M302.733 62.6344L303.075 66.5371H302.733C302.503 65.7123 302.086 64.9524 301.514 64.3179C301.051 63.9179 300.509 63.6196 299.925 63.4422C299.34 63.2649 298.725 63.2123 298.119 63.288C297.513 63.3637 296.929 63.5659 296.405 63.8816C295.881 64.1974 295.429 64.6197 295.078 65.1214C294.374 66.2562 294.017 67.5729 294.049 68.9093C294.037 70.0309 294.271 71.1414 294.735 72.1616C295.119 73.0308 295.739 73.7735 296.525 74.3042C297.205 74.7494 297.998 74.9885 298.81 74.9929C299.248 74.9884 299.684 74.924 300.105 74.8016C300.542 74.686 300.963 74.519 301.362 74.3042V70.7076C301.378 70.2938 301.327 69.8801 301.209 69.4832C301.108 69.2864 300.948 69.126 300.752 69.0241C300.418 68.9287 300.071 68.8899 299.724 68.9093V68.5267H304.522V68.9093H304.294C304.103 68.8892 303.91 68.9213 303.736 69.0021C303.562 69.0829 303.412 69.2095 303.304 69.3684C303.151 69.7973 303.086 70.2529 303.113 70.7076V74.4955C302.464 74.8574 301.773 75.1399 301.057 75.3373C300.311 75.5293 299.542 75.6194 298.772 75.6051C296.411 75.6051 294.582 74.8399 293.364 73.3094C292.431 72.1829 291.931 70.7574 291.955 69.2919C291.977 68.1064 292.296 66.9455 292.882 65.916C293.467 64.8864 294.301 64.0211 295.306 63.3996C296.288 62.8689 297.391 62.6051 298.505 62.6344C298.914 62.6309 299.323 62.6694 299.724 62.7492C300.257 62.8539 300.78 63.0076 301.285 63.2083C301.499 63.3166 301.732 63.3816 301.971 63.3996C302.03 63.403 302.09 63.3907 302.143 63.3638C302.197 63.337 302.242 63.2966 302.276 63.2466C302.368 63.0554 302.42 62.8469 302.428 62.6344H302.733Z" fill="#FF1616"/>
<path d="M324.25 75.299H320.937L316.748 69.5215H315.453V73.1181C315.453 73.8833 315.529 74.3807 315.719 74.572C315.849 74.7144 316.008 74.826 316.186 74.8988C316.364 74.9716 316.556 75.0038 316.748 74.9929H317.243V75.299H311.949V74.9929H312.406C312.621 75.0138 312.838 74.9749 313.033 74.8805C313.228 74.786 313.393 74.6396 313.51 74.4573C313.663 74.2659 313.701 73.8451 313.701 73.1181V65.0831C313.701 64.3179 313.625 63.8205 313.472 63.6292C313.332 63.4928 313.164 63.3881 312.98 63.3221C312.796 63.2561 312.601 63.2304 312.406 63.2466H311.949V62.9022H316.443C317.417 62.8694 318.391 62.9724 319.337 63.2083C319.957 63.3942 320.511 63.7524 320.937 64.2414C321.362 64.7723 321.591 65.4348 321.584 66.1162C321.592 66.8413 321.319 67.5411 320.823 68.0676C320.212 68.7122 319.411 69.1416 318.538 69.2919L321.089 72.8503C321.486 73.4699 321.989 74.0139 322.574 74.4573C323.086 74.7597 323.659 74.9428 324.25 74.9929V75.299ZM315.453 68.9476H315.986C316.935 69.0039 317.875 68.734 318.652 68.1823C318.927 67.9381 319.148 67.6378 319.299 67.3014C319.45 66.9649 319.528 66.6001 319.528 66.231C319.547 65.879 319.492 65.527 319.367 65.1975C319.243 64.868 319.051 64.5684 318.804 64.3179C318.29 63.8319 317.605 63.5705 316.9 63.5909C316.413 63.6123 315.929 63.6763 315.453 63.7822V68.9476Z" fill="#FF1616"/>
<path d="M337.732 62.6344C338.519 62.632 339.298 62.794 340.019 63.1102C340.74 63.4263 341.388 63.8897 341.921 64.4709C342.501 65.0738 342.955 65.7873 343.256 66.5694C343.557 67.3514 343.699 68.1861 343.673 69.0241C343.701 69.8887 343.558 70.7503 343.25 71.5584C342.943 72.3665 342.478 73.1048 341.883 73.7303C341.334 74.3174 340.672 74.7861 339.937 75.1076C339.201 75.4291 338.409 75.5968 337.607 75.6004C336.805 75.604 336.011 75.4434 335.273 75.1284C334.535 74.8135 333.868 74.3508 333.314 73.7685C332.134 72.5824 331.562 70.9754 331.562 69.0624C331.539 68.1609 331.707 67.2647 332.055 66.4334C332.403 65.6022 332.923 64.8549 333.581 64.2414C334.703 63.1823 336.193 62.6057 337.732 62.6344ZM337.58 63.2848C337.071 63.2669 336.566 63.3682 336.103 63.5807C335.64 63.7932 335.233 64.1111 334.914 64.5092C334.076 65.5423 333.657 67.0345 333.657 69.0241C333.657 71.0137 334.076 72.6207 334.952 73.692C335.257 74.0988 335.655 74.4258 336.112 74.6456C336.57 74.8653 337.073 74.9713 337.58 74.9547C338.13 74.9666 338.675 74.8481 339.172 74.6088C339.668 74.3695 340.101 74.0161 340.436 73.5772C341.198 72.6972 341.579 71.2433 341.579 69.2919C341.579 67.3406 341.16 65.5805 340.322 64.5475C339.999 64.1317 339.581 63.7999 339.104 63.5802C338.627 63.3604 338.104 63.2591 337.58 63.2848Z" fill="#FF1616"/>
<path d="M360.164 63.2466V62.9022H364.505V63.2466H364.048C363.826 63.2377 363.606 63.29 363.411 63.3979C363.217 63.5059 363.055 63.6652 362.944 63.8588C362.792 64.0501 362.754 64.4709 362.754 65.1597V70.2102C362.779 71.1936 362.651 72.1749 362.373 73.1181C362.098 73.85 361.589 74.4693 360.925 74.8781C360.042 75.41 359.021 75.6632 357.993 75.6051C356.622 75.6051 355.632 75.3755 354.908 74.9164C354.232 74.4441 353.714 73.7771 353.423 73.0033C353.232 72.4676 353.156 71.4346 353.156 69.9424V65.0831C353.156 64.3562 353.042 63.8205 352.813 63.5909C352.683 63.4653 352.527 63.3696 352.356 63.3101C352.185 63.2507 352.003 63.229 351.823 63.2466H351.328V62.9022H356.698V63.2466H356.203C355.992 63.2257 355.779 63.2605 355.585 63.3478C355.391 63.435 355.224 63.5716 355.099 63.744C354.946 63.9353 354.87 64.3944 354.87 65.0831V70.5163C354.89 71.0672 354.941 71.6165 355.022 72.1616C355.065 72.6744 355.221 73.1712 355.479 73.6155C355.749 73.9852 356.101 74.2866 356.508 74.4955C357.004 74.7428 357.554 74.8612 358.107 74.8399C358.864 74.8446 359.61 74.6605 360.278 74.3042C360.847 73.9986 361.302 73.515 361.573 72.9268C361.801 72.3911 361.916 71.4346 361.916 70.1337V65.0831C361.916 64.3179 361.839 63.8588 361.649 63.6292C361.518 63.4915 361.357 63.3855 361.179 63.3193C361.001 63.253 360.81 63.2281 360.621 63.2466H360.164Z" fill="#FF1616"/>
<path d="M375.397 69.5215V73.1181C375.397 73.8833 375.474 74.3807 375.664 74.572C375.794 74.7144 375.953 74.826 376.131 74.8988C376.309 74.9716 376.501 75.0038 376.692 74.9929H377.187V75.299H371.894V74.9929H372.351C372.565 75.0097 372.781 74.9689 372.975 74.8748C373.169 74.7807 373.335 74.6366 373.455 74.4573C373.62 74.0314 373.685 73.5732 373.646 73.1181V65.0831C373.646 64.3179 373.569 63.8205 373.417 63.6292C373.275 63.4948 373.107 63.3914 372.924 63.3255C372.74 63.2597 372.545 63.2328 372.351 63.2466H371.894V62.9022H376.426C377.302 62.8715 378.177 62.9879 379.015 63.2466C379.654 63.4744 380.22 63.8709 380.653 64.3944C381.081 64.9533 381.309 65.6407 381.301 66.3458C381.315 66.8008 381.235 67.2539 381.064 67.6758C380.894 68.0976 380.637 68.4787 380.31 68.7945C379.625 69.445 378.673 69.7511 377.454 69.7511H376.502L375.397 69.5215ZM375.397 68.9858L376.235 69.1389H376.883C377.194 69.1369 377.502 69.0675 377.785 68.9355C378.067 68.8034 378.318 68.6118 378.52 68.3736C378.754 68.1231 378.935 67.8281 379.052 67.5061C379.17 67.184 379.222 66.8415 379.206 66.4988C379.204 65.9737 379.1 65.4539 378.901 64.9684C378.699 64.5323 378.366 64.171 377.949 63.9353C377.532 63.6969 377.058 63.5778 376.578 63.5909C376.179 63.613 375.783 63.6772 375.397 63.7822V68.9858Z" fill="#FF1616"/>
<path d="M38.9984 18.2126C44.0043 18.2126 48.0624 14.1355 48.0624 9.10628C48.0624 4.07702 44.0043 0 38.9984 0C33.9924 0 29.9343 4.07702 29.9343 9.10628C29.9343 14.1355 33.9924 18.2126 38.9984 18.2126Z" fill="#FF1616"/>
<path d="M8.87365 36.0808C13.7744 36.0808 17.7473 32.0894 17.7473 27.1658C17.7473 22.2422 13.7744 18.2508 8.87365 18.2508C3.97287 18.2508 0 22.2422 0 27.1658C0 32.0894 3.97287 36.0808 8.87365 36.0808Z" fill="#FF1616"/>
<path d="M8.87365 66.1545C13.7744 66.1545 17.7473 62.1631 17.7473 57.2395C17.7473 52.3159 13.7744 48.3245 8.87365 48.3245C3.97287 48.3245 0 52.3159 0 57.2395C0 62.1631 3.97287 66.1545 8.87365 66.1545Z" fill="#FF1616"/>
<path d="M38.9984 81C43.8992 81 47.872 77.0086 47.872 72.085C47.872 67.1614 43.8992 63.1701 38.9984 63.1701C34.0976 63.1701 30.1247 67.1614 30.1247 72.085C30.1247 77.0086 34.0976 81 38.9984 81Z" fill="#FF1616"/>
<path d="M66.381 66.1545C71.2818 66.1545 75.2547 62.1631 75.2547 57.2395C75.2547 52.3159 71.2818 48.3245 66.381 48.3245C61.4802 48.3245 57.5074 52.3159 57.5074 57.2395C57.5074 62.1631 61.4802 66.1545 66.381 66.1545Z" fill="#FF1616"/>
<path d="M66.381 36.0808C71.2818 36.0808 75.2547 32.0894 75.2547 27.1658C75.2547 22.2422 71.2818 18.2508 66.381 18.2508C61.4802 18.2508 57.5074 22.2422 57.5074 27.1658C57.5074 32.0894 61.4802 36.0808 66.381 36.0808Z" fill="#FF1616"/>
<path d="M32.6764 37.0373C35.3897 37.0373 37.5893 34.8275 37.5893 32.1016C37.5893 29.3756 35.3897 27.1658 32.6764 27.1658C29.9631 27.1658 27.7635 29.3756 27.7635 32.1016C27.7635 34.8275 29.9631 37.0373 32.6764 37.0373Z" fill="#38B6FF"/>
<path d="M27.7635 46.9088C30.4768 46.9088 32.6764 44.699 32.6764 41.9731C32.6764 39.2471 30.4768 37.0373 27.7635 37.0373C25.0502 37.0373 22.8506 39.2471 22.8506 41.9731C22.8506 44.699 25.0502 46.9088 27.7635 46.9088Z" fill="#38B6FF"/>
<path d="M32.6764 56.5508C35.3897 56.5508 37.5893 54.341 37.5893 51.615C37.5893 48.8891 35.3897 46.6793 32.6764 46.6793C29.9631 46.6793 27.7635 48.8891 27.7635 51.615C27.7635 54.341 29.9631 56.5508 32.6764 56.5508Z" fill="#38B6FF"/>
<path d="M45.2442 56.5508C47.9575 56.5508 50.1571 54.341 50.1571 51.615C50.1571 48.8891 47.9575 46.6793 45.2442 46.6793C42.5309 46.6793 40.3313 48.8891 40.3313 51.615C40.3313 54.341 42.5309 56.5508 45.2442 56.5508Z" fill="#38B6FF"/>
<path d="M50.1571 46.9088C52.8704 46.9088 55.07 44.699 55.07 41.9731C55.07 39.2471 52.8704 37.0373 50.1571 37.0373C47.4438 37.0373 45.2442 39.2471 45.2442 41.9731C45.2442 44.699 47.4438 46.9088 50.1571 46.9088Z" fill="#38B6FF"/>
<path d="M45.2442 37.0373C47.9575 37.0373 50.1571 34.8275 50.1571 32.1016C50.1571 29.3756 47.9575 27.1658 45.2442 27.1658C42.5309 27.1658 40.3313 29.3756 40.3313 32.1016C40.3313 34.8275 42.5309 37.0373 45.2442 37.0373Z" fill="#38B6FF"/>
</g>
<defs>
<clipPath id="clip0_631_1374">
<rect width="400" height="81" fill="white"/>
</clipPath>
</defs>
</svg>
